<svg width="115" height="37" viewBox="0 0 115 37" fill="none" xmlns="http://www.w3.org/2000/svg">
<path d="M12.4081 3.024C9.97606 3.824 8.08806 5.152 6.74406 7.008C5.43206 8.832 4.77606 11.104 4.77606 13.824C4.77606 15.04 4.88806 15.872 5.11207 16.32C5.33607 16.768 5.44806 17.04 5.44806 17.136C2.02406 17.136 0.312065 15.68 0.312065 12.768C0.312065 10.784 1.06406 8.8 2.56806 6.816C4.10406 4.8 6.05606 3.168 8.42406 1.92C10.8241 0.64 13.2081 0 15.5761 0C16.7601 0 17.9761 0.224 19.2241 0.672L18.1201 25.968L28.6801 0.672H35.5921L30.5521 36H23.6401L26.7121 14.448L17.6881 36H11.1121L12.0721 14.352L4.05606 36H0.216064L12.4081 3.024Z" fill="#141414"/>
<path d="M50.9093 0H55.9493L50.1413 9.072H46.5413L50.9093 0ZM40.5413 36.288C38.7173 36.288 37.1973 35.664 35.9813 34.416C34.7653 33.168 34.1573 31.216 34.1573 28.56C34.1573 26.192 34.6213 23.712 35.5493 21.12C36.5093 18.496 37.9173 16.288 39.7733 14.496C41.6613 12.672 43.9013 11.76 46.4933 11.76C47.8053 11.76 48.7813 11.984 49.4213 12.432C50.0613 12.88 50.3813 13.472 50.3813 14.208V14.544L50.9093 12H57.8213L54.3653 28.32C54.2373 28.8 54.1733 29.312 54.1733 29.856C54.1733 31.232 54.8293 31.92 56.1413 31.92C57.0373 31.92 57.8053 31.504 58.4453 30.672C59.1173 29.84 59.6453 28.752 60.0293 27.408H62.0453C60.8613 30.864 59.3893 33.216 57.6293 34.464C55.9013 35.68 54.1573 36.288 52.3973 36.288C51.0533 36.288 49.9653 35.92 49.1333 35.184C48.3333 34.416 47.8533 33.312 47.6933 31.872C46.7653 33.184 45.7253 34.256 44.5733 35.088C43.4533 35.888 42.1093 36.288 40.5413 36.288ZM43.6613 31.632C44.4613 31.632 45.2453 31.264 46.0133 30.528C46.8133 29.76 47.3573 28.72 47.6453 27.408L49.9493 16.56C49.9493 16.144 49.7893 15.744 49.4693 15.36C49.1493 14.944 48.6533 14.736 47.9813 14.736C46.7013 14.736 45.5493 15.488 44.5253 16.992C43.5013 18.464 42.7013 20.256 42.1253 22.368C41.5493 24.448 41.2613 26.288 41.2613 27.888C41.2613 29.488 41.4853 30.512 41.9333 30.96C42.4133 31.408 42.9893 31.632 43.6613 31.632Z" fill="#141414"/>
<path d="M63.3109 12H70.2229L69.5989 14.976C70.6869 14.016 71.6629 13.28 72.5269 12.768C73.4229 12.256 74.3829 12 75.4069 12C76.4309 12 77.2309 12.352 77.8069 13.056C78.4149 13.76 78.7189 14.608 78.7189 15.6C78.7189 16.528 78.4149 17.344 77.8069 18.048C77.1989 18.752 76.3509 19.104 75.2629 19.104C74.5589 19.104 74.0789 18.944 73.8229 18.624C73.5989 18.272 73.4229 17.776 73.2949 17.136C73.1989 16.72 73.1029 16.416 73.0069 16.224C72.9109 16.032 72.7349 15.936 72.4789 15.936C71.8069 15.936 71.2309 16.08 70.7509 16.368C70.3029 16.624 69.7109 17.088 68.9749 17.76L65.1349 36H58.2229L63.3109 12Z" fill="#141414"/>
<path d="M86.1098 9.408C85.0538 9.408 84.1578 9.04 83.4218 8.304C82.6858 7.568 82.3178 6.672 82.3178 5.616C82.3178 4.56 82.6858 3.664 83.4218 2.928C84.1578 2.16 85.0538 1.776 86.1098 1.776C87.1658 1.776 88.0618 2.16 88.7978 2.928C89.5658 3.664 89.9498 4.56 89.9498 5.616C89.9498 6.672 89.5658 7.568 88.7978 8.304C88.0618 9.04 87.1658 9.408 86.1098 9.408ZM82.8458 36.288C81.3098 36.288 80.0618 35.808 79.1018 34.848C78.1738 33.888 77.7098 32.448 77.7098 30.528C77.7098 29.728 77.8378 28.688 78.0938 27.408L81.3578 12H88.2698L84.8138 28.32C84.6858 28.8 84.6218 29.312 84.6218 29.856C84.6218 30.496 84.7658 30.96 85.0538 31.248C85.3738 31.504 85.8858 31.632 86.5898 31.632C87.5178 31.632 88.3818 31.248 89.1818 30.48C89.9818 29.68 90.5578 28.656 90.9098 27.408H92.9258C91.7418 30.864 90.2218 33.216 88.3658 34.464C86.5098 35.68 84.6698 36.288 82.8458 36.288Z" fill="#141414"/>
<path d="M97.8987 36.192C95.5307 36.192 93.6587 35.584 92.2827 34.368C90.9067 33.152 90.2187 31.232 90.2187 28.608C90.2187 26.4 90.6507 23.984 91.5147 21.36C92.3787 18.704 93.7867 16.416 95.7387 14.496C97.6907 12.544 100.187 11.568 103.227 11.568C107.003 11.568 109.035 13.728 109.323 18.048C110.027 17.888 110.651 17.504 111.195 16.896C111.739 16.256 112.251 15.536 112.731 14.736H114.267C113.403 16.464 112.635 17.824 111.963 18.816C111.291 19.776 110.411 20.56 109.323 21.168C109.131 24.176 108.507 26.816 107.451 29.088C106.427 31.36 105.083 33.12 103.419 34.368C101.755 35.584 99.9147 36.192 97.8987 36.192ZM99.8187 31.872C101.003 31.872 102.107 30.912 103.131 28.992C104.155 27.072 104.859 24.704 105.243 21.888C104.475 21.6 104.091 20.88 104.091 19.728C104.091 18.48 104.539 17.648 105.435 17.232C105.371 16.208 105.195 15.504 104.907 15.12C104.651 14.704 104.219 14.496 103.611 14.496C102.555 14.496 101.547 15.264 100.587 16.8C99.6267 18.304 98.8427 20.144 98.2347 22.32C97.6587 24.464 97.3707 26.352 97.3707 27.984C97.3707 29.52 97.5467 30.56 97.8987 31.104C98.2507 31.616 98.8907 31.872 99.8187 31.872Z" fill="#141414"/>
</svg>
